<svg width="58" height="58" viewBox="0 0 58 58" fill="none" xmlns="http://www.w3.org/2000/svg">
<g id="&#8;icon">
<g id="Group 75">
<g id="Group 74">
<rect id="Rectangle 125" width="58" height="58" rx="15" fill="#D2D7DF"/>
<rect id="Rectangle 126" opacity="0.6" x="7" y="4" width="44" height="34" rx="5" fill="white"/>
<rect id="Rectangle 127" x="4" y="8" width="50" height="32" rx="5" fill="white"/>
</g>
<path id="Subtract" fill-rule="evenodd" clip-rule="evenodd" d="M26.0723 12C28.204 12.1186 29.6811 12.6134 31.5556 14.3804C31.678 14.4958 31.7952 14.6074 31.9085 14.7151C33.5196 16.2476 34.3107 17 37.4667 17H58V43C58 51.2843 51.2843 58 43 58H15C6.71573 58 0 51.2843 0 43V22C0 16.4772 4.47715 12 10 12H21H26.0723Z" fill="#F0F2F4"/>
</g>
<path id="Union" fill-rule="evenodd" clip-rule="evenodd" d="M25.3931 30.6111C25.5333 30.265 25.7424 29.8967 26.0384 29.5641C26.5935 28.9402 27.4981 28.3889 29 28.3889C30.5019 28.3889 31.4065 28.9402 31.9616 29.5641C32.2576 29.8967 32.4667 30.265 32.6069 30.6111H25.3931ZM23.2143 30.995C23.3525 30.1759 23.7478 29.1296 24.5443 28.2345C25.4825 27.1802 26.9326 26.3889 29 26.3889C31.0674 26.3889 32.5175 27.1802 33.4557 28.2345C34.2522 29.1296 34.6475 30.1759 34.7857 30.995C36.026 31.5127 37.0132 32.5157 37.5099 33.7668C36.4008 34.1211 34.9257 34.5008 33.2278 34.7635L32.9498 33.6514C32.8493 33.2496 32.4421 33.0053 32.0403 33.1057C31.6385 33.2062 31.3941 33.6134 31.4946 34.0152L31.7298 34.9559C30.8567 35.0448 29.9415 35.0972 29 35.0972C28.061 35.0972 27.1481 35.0343 26.2773 34.9275L26.5054 34.0152C26.6058 33.6134 26.3615 33.2062 25.9597 33.1057C25.5578 33.0053 25.1506 33.2496 25.0502 33.6514L24.7886 34.6977C23.1312 34.3896 21.6869 33.9471 20.5909 33.5308C21.1136 32.3899 22.0529 31.4797 23.2143 30.995ZM20.1389 35.6111C20.1389 35.3967 20.1524 35.1855 20.1786 34.9782C21.3195 35.4042 22.7726 35.8425 24.4241 36.1555L24.2446 36.8737C24.1441 37.2755 24.3885 37.6827 24.7903 37.7832C25.1921 37.8836 25.5993 37.6393 25.6998 37.2375L25.9109 36.3931C26.8953 36.5211 27.9317 36.5972 29 36.5972C30.0712 36.5972 31.1104 36.5331 32.0971 36.4254L32.3002 37.2375C32.4006 37.6393 32.8078 37.8836 33.2097 37.7832C33.6115 37.6827 33.8558 37.2755 33.7554 36.8737L33.5931 36.2245C35.2529 35.9602 36.71 35.5904 37.847 35.2333C37.8564 35.358 37.8611 35.484 37.8611 35.6111V39.3056C37.8611 42.067 35.6225 44.3056 32.8611 44.3056H25.1389C22.3775 44.3056 20.1389 42.067 20.1389 39.3056V35.6111Z" fill="#ABB4C4"/>
</g>
</svg>
