<svg width="58" height="58" viewBox="0 0 58 58" fill="none" xmlns="http://www.w3.org/2000/svg">
<rect width="58" height="58" rx="15" fill="#D2D7DF"/>
<rect opacity="0.6" x="7" y="4" width="44" height="34" rx="5" fill="white"/>
<rect x="4" y="8" width="50" height="32" rx="5" fill="white"/>
<path fill-rule="evenodd" clip-rule="evenodd" d="M26.0723 12C28.204 12.1186 29.6811 12.6134 31.5556 14.3804C31.678 14.4958 31.7952 14.6074 31.9085 14.7151C33.5196 16.2476 34.3107 17 37.4667 17H58V43C58 51.2843 51.2843 58 43 58H15C6.71573 58 0 51.2843 0 43V22C0 16.4772 4.47715 12 10 12H21H26.0723Z" fill="#F0F2F4"/>
<path fill-rule="evenodd" clip-rule="evenodd" d="M29 33.8333C31.2245 33.8333 33.0278 32.03 33.0278 29.8055C33.0278 27.5811 31.2245 25.7778 29 25.7778C26.7755 25.7778 24.9722 27.5811 24.9722 29.8055C24.9722 32.03 26.7755 33.8333 29 33.8333ZM29 43.4984C29 43.4984 37.8611 43.6601 37.8611 40.737C37.8611 37.814 33.8939 35.4444 29 35.4444C24.1061 35.4444 20.1389 37.814 20.1389 40.737C20.1389 43.6601 29 43.4984 29 43.4984Z" fill="#ABB4C4"/>
</svg>
