<svg width="52" height="52" viewBox="0 0 52 52" fill="none" xmlns="http://www.w3.org/2000/svg">
<g clip-path="url(#clip0_1776_5214)">
<path d="M29.7519 18.2H30.7659C31.5719 18.2 32.3346 18.5207 32.8979 19.0927C33.4612 19.656 33.7819 20.4273 33.7906 21.2333V30.7667C33.7906 31.5727 33.4699 32.344 32.9066 32.9073C32.3432 33.4793 31.5719 33.8 30.7659 33.8H21.2326C20.4266 33.8 19.6552 33.4706 19.0919 32.9073C18.5286 32.3353 18.2079 31.5727 18.1992 30.7667V21.2333C18.1992 20.4273 18.5286 19.6647 19.0919 19.0927C19.6639 18.5294 20.4266 18.2087 21.2326 18.2H29.7432H29.7519Z" stroke="black" stroke-width="1.5" stroke-miterlimit="10"/>
<path d="M28.418 27.0227L26.728 25.4886C26.5286 25.3153 26.2773 25.22 26.0086 25.22C25.74 25.22 25.4886 25.3153 25.298 25.4886L23.608 27.0227C22.8713 27.6987 22.2646 27.4213 22.2646 26.4247V18.2173H29.7786V26.4247C29.7786 27.43 29.2066 27.6987 28.4353 27.0227H28.418Z" stroke="black" stroke-width="1.5" stroke-miterlimit="10"/>
</g>
<defs>
<clipPath id="clip0_1776_5214">
<rect width="20.8" height="20.8" fill="white" transform="translate(15.5996 15.6)"/>
</clipPath>
</defs>
</svg>
