<svg width="52" height="52" viewBox="0 0 52 52" fill="none" xmlns="http://www.w3.org/2000/svg">
<rect opacity="0.1" width="52" height="52" rx="12" fill="#5348F3"/>
<g clip-path="url(#clip0_1776_5204)">
<path d="M30.33 17H31.5C32.43 17 33.31 17.37 33.96 18.03C34.61 18.68 34.98 19.57 34.99 20.5V31.5C34.99 32.43 34.62 33.32 33.97 33.97C33.32 34.63 32.43 35 31.5 35H20.5C19.57 35 18.68 34.62 18.03 33.97C17.38 33.31 17.01 32.43 17 31.5V20.5C17 19.57 17.38 18.69 18.03 18.03C18.69 17.38 19.57 17.01 20.5 17H30.32H30.33Z" stroke="#5348F3" stroke-width="2" stroke-miterlimit="10"/>
<path d="M28.7904 27.18L26.8404 25.41C26.6104 25.21 26.3204 25.1 26.0104 25.1C25.7004 25.1 25.4104 25.21 25.1904 25.41L23.2404 27.18C22.3904 27.96 21.6904 27.64 21.6904 26.49V17.02H30.3604V26.49C30.3604 27.65 29.7004 27.96 28.8104 27.18H28.7904Z" stroke="#5348F3" stroke-width="2" stroke-miterlimit="10"/>
</g>
<defs>
<clipPath id="clip0_1776_5204">
<rect width="24" height="24" fill="white" transform="translate(14 14)"/>
</clipPath>
</defs>
</svg>
