<svg width="14" height="14" viewBox="0 0 14 14" fill="none" xmlns="http://www.w3.org/2000/svg">
<g id="Group 138">
<circle id="Ellipse 59" cx="7" cy="7" r="7" fill="#37D292"/>
<path id="Star 1" d="M6.60732 3.00004C6.7678 2.67487 7.23148 2.67487 7.39196 3.00004L8.44079 5.12518C8.50451 5.25431 8.6277 5.34381 8.7702 5.36452L11.1154 5.7053C11.4743 5.75744 11.6176 6.19843 11.3579 6.45154L9.66087 8.10573C9.55776 8.20624 9.51071 8.35105 9.53505 8.49298L9.93566 10.8287C9.99696 11.1861 9.62183 11.4587 9.30087 11.2899L7.20323 10.1871C7.07578 10.1201 6.92351 10.1201 6.79606 10.1871L4.69842 11.2899C4.37745 11.4587 4.00233 11.1861 4.06362 10.8287L4.46424 8.49298C4.48858 8.35105 4.44153 8.20624 4.33841 8.10573L2.64139 6.45154C2.38172 6.19843 2.52501 5.75744 2.88386 5.7053L5.22909 5.36452C5.37159 5.34381 5.49477 5.25431 5.5585 5.12518L6.60732 3.00004Z" fill="white"/>
</g>
</svg>
