<svg width="24" height="24" viewBox="0 0 24 24" fill="none" xmlns="http://www.w3.org/2000/svg">
<path d="M3 3C3 2.44772 3.44772 2 4 2H20C20.5523 2 21 2.44772 21 3V21.719C21 22.2277 20.4067 22.5056 20.0159 22.1799L18.6402 21.0335C18.2693 20.7244 17.7307 20.7244 17.3598 21.0335L16.2804 21.933C15.5387 22.5511 14.4613 22.5511 13.7196 21.933L12.6402 21.0335C12.2693 20.7244 11.7307 20.7244 11.3598 21.0335L10.2804 21.933C9.53868 22.5511 8.46132 22.5511 7.71963 21.933L6.64018 21.0335C6.26934 20.7244 5.73066 20.7244 5.35982 21.0335L3.98411 22.1799C3.59331 22.5056 3 22.2277 3 21.719V3Z" fill="#ECF0F4"/>
<path fill-rule="evenodd" clip-rule="evenodd" d="M1 2C1 1.44772 1.54721 1 2.22222 1H21.7778C22.4528 1 23 1.44772 23 2C23 2.55228 22.4528 3 21.7778 3H2.22222C1.54721 3 1 2.55228 1 2Z" fill="#606C85"/>
<path fill-rule="evenodd" clip-rule="evenodd" d="M7.85457 7.55017C8.30038 7.39095 8.79085 7.62328 8.95006 8.06909L10.195 11.5549L11.1758 8.1219C11.281 7.75393 11.6173 7.50023 12 7.50023C12.3827 7.50023 12.719 7.75393 12.8242 8.1219L13.805 11.5549L15.0499 8.06909C15.2092 7.62328 15.6996 7.39095 16.1454 7.55017C16.5912 7.70939 16.8236 8.19986 16.6644 8.64566L16.3436 9.54377H17.1429C17.6162 9.54377 18 9.92752 18 10.4009C18 10.8743 17.6162 11.2581 17.1429 11.2581H15.7314L14.5215 14.6457C14.3962 14.9964 14.0588 15.2261 13.6866 15.2141C13.3143 15.202 12.9924 14.951 12.8901 14.5929L12 11.4774L11.1099 14.5929C11.0076 14.951 10.6857 15.202 10.3134 15.2141C9.9412 15.2261 9.60377 14.9964 9.47851 14.6457L8.26865 11.2581H6.85714C6.38376 11.2581 6 10.8743 6 10.4009C6 9.92752 6.38376 9.54377 6.85714 9.54377H7.6564L7.33565 8.64566C7.17643 8.19986 7.40876 7.70939 7.85457 7.55017Z" fill="#2ABB7F"/>
</svg>
