<svg width="52" height="52" viewBox="0 0 52 52" fill="none" xmlns="http://www.w3.org/2000/svg">
<rect opacity="0.1" width="52" height="52" rx="12" fill="#5348F3"/>
<path d="M31.9206 28.61C31.4306 29.05 30.6106 29.06 29.6406 28.69C28.3606 28.23 26.8306 27.12 25.4506 25.58C24.0806 24.04 23.1506 22.39 22.8306 21.06C22.5806 20.06 22.6906 19.25 23.1806 18.81C24.3406 17.78 27.2306 19.13 29.6506 21.83C32.0706 24.53 33.0806 27.57 31.9206 28.6V28.61Z" stroke="#5348F3" stroke-width="2" stroke-miterlimit="10" stroke-linecap="round"/>
<path d="M22.8604 19.29L18.1705 29.8C17.5105 31.27 18.9105 32.83 20.4505 32.35L31.4304 28.88" stroke="#5348F3" stroke-width="2" stroke-miterlimit="10" stroke-linecap="round"/>
<path d="M21.6406 32.08L22.1706 33.77C22.4606 34.69 23.4606 35.21 24.3806 34.92L26.0706 34.39C26.9906 34.1 27.5106 33.1 27.2206 32.18L26.6906 30.49" stroke="#5348F3" stroke-width="2" stroke-miterlimit="10" stroke-linecap="round"/>
<path d="M35.1398 17.93L34.2598 18.82" stroke="#5348F3" stroke-width="2" stroke-miterlimit="10" stroke-linecap="round"/>
<path d="M30.6004 17L30.1904 17.9" stroke="#5348F3" stroke-width="2" stroke-miterlimit="10" stroke-linecap="round"/>
<path d="M36.0002 22.4L35.1602 22.85" stroke="#5348F3" stroke-width="2" stroke-miterlimit="10" stroke-linecap="round"/>
</svg>
