<svg width="206" height="32" viewBox="0 0 206 32" fill="none" xmlns="http://www.w3.org/2000/svg">
<g id="logo">
<g id="&#235;&#161;&#156;&#234;&#179;&#160;">
<g id="&#234;&#183;&#184;&#235;&#163;&#185; 28">
<g id="Group 64">
<path id="&#237;&#140;&#168;&#236;&#138;&#164; 30" d="M25.1539 23.3339L38.0126 15.3465L25.1504 7.44046" fill="#E20F23"/>
<path id="&#237;&#140;&#168;&#236;&#138;&#164; 31" d="M12.8472 0.000152588L0 8.00345L12.2374 15.4809L25.1508 7.43873L12.8472 0.000152588Z" fill="#F25E57"/>
<path id="&#237;&#140;&#168;&#236;&#138;&#164; 32" d="M24.7796 7.66052L12.2373 15.4818V15.9298V31.3955L25.1543 23.3357V23.2473V7.88499V7.44046L24.7796 7.66052Z" fill="#F09B95"/>
</g>
<g id="&#234;&#183;&#184;&#235;&#163;&#185; 27">
<path id="&#237;&#140;&#168;&#236;&#138;&#164; 33" d="M92.1187 11.6804C91.1533 11.6642 90.1892 11.7572 89.2447 11.9574C88.4218 12.1573 87.6444 12.5115 86.9537 13.0014C86.4675 13.3495 86.0768 13.8145 85.8177 14.3534C85.549 14.8561 85.4018 15.4147 85.3877 15.9844V25.1734H81.0537V8.11443H85.3887V9.89643C86.3371 9.199 87.4045 8.67988 88.5387 8.36443C89.7037 8.03649 90.9085 7.87126 92.1187 7.87343V11.6804Z" fill="black"/>
<path id="&#237;&#140;&#168;&#236;&#138;&#164; 34" d="M143.95 11.6804C142.984 11.6642 142.02 11.7572 141.076 11.9574C140.253 12.1573 139.475 12.5115 138.785 13.0014C138.299 13.3495 137.908 13.8145 137.649 14.3534C137.38 14.8561 137.233 15.4147 137.219 15.9844V25.1734H132.885V8.11443H137.22V9.89643C138.168 9.199 139.236 8.67988 140.37 8.36443C141.535 8.03649 142.74 7.87126 143.95 7.87343V11.6804Z" fill="black"/>
<path id="&#237;&#140;&#168;&#236;&#138;&#164; 35" d="M51.1468 12.5054H55.8688V9.09644H51.1468V4.72644L43.8838 11.7084V12.5084H47.0198V20.2424C47.0198 23.4424 48.6868 25.1764 52.3198 25.1764H55.8608V21.1204H53.4158C52.0488 21.1204 51.1468 20.7034 51.1468 19.1744V12.5044V12.5054Z" fill="black"/>
<path id="&#237;&#140;&#168;&#236;&#138;&#164; 36" d="M106.21 3.03543V10.2034C104.973 9.22003 103.484 8.60543 101.913 8.43023C100.343 8.25502 98.7551 8.52631 97.3319 9.21295C95.9087 9.89958 94.7081 10.9737 93.8679 12.3119C93.0277 13.6502 92.582 15.1983 92.582 16.7784C92.582 18.3586 93.0277 19.9067 93.8679 21.2449C94.7081 22.5832 95.9087 23.6573 97.3319 24.3439C98.7551 25.0305 100.343 25.3018 101.913 25.1266C103.484 24.9514 104.973 24.3368 106.21 23.3534V25.1744H110.744V3.03543H106.21ZM101.748 21.1944C100.866 21.1944 100.005 20.9331 99.2722 20.4435C98.5394 19.9538 97.9682 19.2579 97.631 18.4437C97.2937 17.6294 97.2055 16.7335 97.3774 15.8691C97.5493 15.0047 97.9737 14.2107 98.5969 13.5876C99.2201 12.9644 100.014 12.54 100.878 12.3681C101.743 12.1961 102.639 12.2844 103.453 12.6216C104.267 12.9589 104.963 13.53 105.453 14.2628C105.942 14.9956 106.204 15.8571 106.204 16.7384C106.204 17.9202 105.734 19.0534 104.898 19.889C104.063 20.7246 102.93 21.1942 101.748 21.1944Z" fill="black"/>
<path id="&#237;&#140;&#168;&#236;&#138;&#164; 37" d="M69.9985 8.13144C68.3132 8.13164 66.6658 8.63158 65.2647 9.56804C63.8635 10.5045 62.7715 11.8354 62.1268 13.3925C61.482 14.9496 61.3135 16.6629 61.6424 18.3158C61.9714 19.9687 62.7831 21.4869 63.975 22.6784C65.1668 23.8699 66.6852 24.6813 68.3381 25.0099C69.9911 25.3385 71.7044 25.1696 73.2613 24.5244C74.8182 23.8793 76.1489 22.787 77.085 21.3856C78.0212 19.9842 78.5207 18.3367 78.5205 16.6514C78.5204 15.5324 78.2999 14.4244 77.8715 13.3907C77.4432 12.3569 76.8154 11.4176 76.0241 10.6265C75.2327 9.83532 74.2933 9.20778 73.2594 8.77968C72.2256 8.35158 71.1175 8.13131 69.9985 8.13144ZM69.9985 21.2314C69.0922 21.2312 68.2062 20.9623 67.4527 20.4586C66.6992 19.955 66.1119 19.2392 65.7652 18.4018C65.4184 17.5644 65.3278 16.643 65.5046 15.7541C65.6815 14.8652 66.118 14.0487 66.7588 13.4078C67.3997 12.7669 68.2163 12.3304 69.1052 12.1535C69.9941 11.9767 70.9155 12.0674 71.7529 12.4141C72.5903 12.7609 73.3061 13.3481 73.8097 14.1016C74.3134 14.8552 74.5823 15.7411 74.5825 16.6474C74.5827 17.2495 74.4642 17.8456 74.2339 18.4018C74.0035 18.958 73.6659 19.4634 73.2402 19.8891C72.8145 20.3148 72.3091 20.6524 71.7529 20.8828C71.1967 21.1131 70.6005 21.2316 69.9985 21.2314Z" fill="black"/>
<path id="&#237;&#140;&#168;&#236;&#138;&#164; 38" d="M130.287 17.7264C130.558 15.5619 129.987 13.3761 128.693 11.6202C127.399 9.86434 125.479 8.67257 123.332 8.29098C121.184 7.90939 118.972 8.36711 117.152 9.56964C115.332 10.7722 114.043 12.6277 113.552 14.753C113.06 16.8783 113.404 19.1112 114.511 20.9905C115.619 22.8698 117.406 24.252 119.503 24.8518C121.601 25.4515 123.848 25.223 125.782 24.2134C127.715 23.2038 129.188 21.4902 129.894 19.4264H125.487C124.964 20.1185 124.255 20.6475 123.442 20.9517C122.63 21.256 121.747 21.3229 120.898 21.1447C120.049 20.9665 119.268 20.5505 118.646 19.9452C118.025 19.34 117.588 18.5705 117.387 17.7264H126.287H130.287ZM121.843 12.0694C122.722 12.07 123.583 12.3236 124.322 12.8001C125.061 13.2766 125.647 13.9557 126.01 14.7564H117.673C118.036 13.9551 118.623 13.2755 119.362 12.7989C120.101 12.3224 120.963 12.0691 121.843 12.0694Z" fill="black"/>
<path id="&#237;&#140;&#168;&#236;&#138;&#164; 39" d="M60.0402 4.78043C59.7218 4.62488 59.3597 4.58356 59.0145 4.66339C58.6693 4.74322 58.362 4.93936 58.1443 5.21888C57.9266 5.4984 57.8116 5.84431 57.8187 6.19856C57.8258 6.5528 57.9545 6.89384 58.1832 7.16443L58.2092 7.19443L58.2262 7.21243C58.5163 7.4987 58.742 7.8435 58.8884 8.22386C59.0347 8.60422 59.0983 9.01141 59.075 9.41828C59.0516 9.82516 58.9418 10.2224 58.7528 10.5835C58.5639 10.9446 58.3001 11.2613 57.9792 11.5124L58.2352 11.9074C62.1212 10.7394 61.8582 5.63943 60.0412 4.78743" fill="#DC091D"/>
</g>
</g>
<path id="&#237;&#151;&#136;&#235;&#184;&#140;&#237;&#139;&#176;" d="M167.016 11.7969V13.5352H156.625V11.7969H160.707V9.33594H162.895V11.7969H167.016ZM157.582 18.8477C157.582 16.4355 159.389 14.6777 161.82 14.6875C164.232 14.6777 166.01 16.4355 166.02 18.8477C166.01 21.2305 164.232 22.9883 161.82 22.9883C159.389 22.9883 157.582 21.2305 157.582 18.8477ZM159.613 18.8477C159.604 20.2539 160.551 21.1523 161.82 21.1328C163.07 21.1523 164.027 20.2539 164.027 18.8477C164.027 17.4512 163.07 16.5332 161.82 16.5234C160.551 16.5332 159.604 17.4512 159.613 18.8477ZM166.645 17.9883V16.2109H169.242V9.08203H171.391V26.7383H169.242V17.9883H166.645ZM189.004 22.7344V24.5312H172.871V22.7344H189.004ZM174.648 19.5898V10.2734H176.816V13.3008H185V10.2734H187.168V19.5898H174.648ZM176.816 17.8906H185V15H176.816V17.8906ZM199.02 10.6055V12.3828H192.32V15.5273H198.316V17.2461H192.32V20.8789C195.211 20.8691 197.418 20.7617 199.957 20.3516L200.172 22.1094C197.389 22.5488 194.908 22.6367 191.656 22.6367H190.172V10.6055H199.02ZM201.715 26.7383V9.08203H203.902V26.7383H201.715Z" fill="black"/>
</g>
</g>
</svg>
