<svg width="30" height="30" viewBox="0 0 30 30" fill="none" xmlns="http://www.w3.org/2000/svg">
<path d="M15 3.75V5.00592M11.2614 22.3792C13.746 22.6586 16.254 22.6586 18.7386 22.3792C18.721 22.6209 18.6831 22.8609 18.6252 23.0965L18.5227 23.5132C18.2017 24.8187 17.1819 25.8347 15.8799 26.1462C15.3014 26.2846 14.6986 26.2846 14.1201 26.1462C12.8181 25.8347 11.7983 24.8187 11.4773 23.5132L11.3748 23.0965C11.3169 22.8609 11.279 22.6209 11.2614 22.3792ZM7.53475 10.7907C8.22765 8.23342 10.1875 6.19156 12.698 5.37778C14.2409 4.87764 15.9187 4.87681 17.4588 5.38547C19.9248 6.19987 21.8125 8.21355 22.4741 10.7354L23.2031 13.514L23.7873 16.1594C23.9672 16.9742 24.212 17.8122 24.341 18.6367C24.3634 18.7797 24.375 18.9262 24.375 19.0755C24.375 20.4083 23.4406 21.5566 22.1405 21.8215L21.681 21.9151C17.2719 22.8133 12.7281 22.8133 8.31898 21.9151L7.85949 21.8215C6.55943 21.5566 5.625 20.4083 5.625 19.0755C5.625 18.9262 5.63662 18.7797 5.65899 18.6367C5.78804 17.8122 6.03283 16.9742 6.21274 16.1594L6.79688 13.514L7.53475 10.7907Z" stroke="white" stroke-width="1.5" stroke-linecap="round"/>
</svg>
