<svg width="30" height="30" viewBox="0 0 30 30" fill="none" xmlns="http://www.w3.org/2000/svg">
<g id="line/search">
<path id="Vector" d="M4.14466 17.2263L4.87484 17.055L4.14466 17.2263ZM4.14466 10.405L4.87484 10.5763L4.14466 10.405ZM23.4867 10.405L24.2168 10.2337L23.4867 10.405ZM23.4867 17.2263L24.2168 17.3976L23.4867 17.2263ZM17.2263 23.4867L17.055 22.7565L17.2263 23.4867ZM10.405 23.4867L10.2337 24.2168L10.405 23.4867ZM10.405 4.14466L10.2337 3.41448L10.405 4.14466ZM17.2263 4.14466L17.3976 3.41448L17.2263 4.14466ZM25.7197 26.7803C26.0126 27.0732 26.4874 27.0732 26.7803 26.7803C27.0732 26.4874 27.0732 26.0126 26.7803 25.7197L25.7197 26.7803ZM4.87484 17.055C4.37505 14.9244 4.37505 12.7069 4.87484 10.5763L3.41448 10.2337C2.86184 12.5897 2.86184 15.0416 3.41448 17.3976L4.87484 17.055ZM22.7565 10.5763C23.2563 12.7069 23.2563 14.9244 22.7565 17.055L24.2168 17.3976C24.7695 15.0416 24.7695 12.5897 24.2168 10.2337L22.7565 10.5763ZM17.055 22.7565C14.9244 23.2563 12.7069 23.2563 10.5763 22.7565L10.2337 24.2168C12.5897 24.7695 15.0416 24.7695 17.3976 24.2168L17.055 22.7565ZM10.5763 4.87484C12.7069 4.37505 14.9244 4.37505 17.055 4.87484L17.3976 3.41448C15.0416 2.86184 12.5897 2.86184 10.2337 3.41448L10.5763 4.87484ZM10.5763 22.7565C7.74731 22.0929 5.53843 19.884 4.87484 17.055L3.41448 17.3976C4.20817 20.7812 6.85012 23.4231 10.2337 24.2168L10.5763 22.7565ZM17.3976 24.2168C20.7812 23.4231 23.4231 20.7812 24.2168 17.3976L22.7565 17.055C22.0929 19.884 19.884 22.0929 17.055 22.7565L17.3976 24.2168ZM17.055 4.87484C19.884 5.53843 22.0929 7.74731 22.7565 10.5763L24.2168 10.2337C23.4231 6.85012 20.7812 4.20817 17.3976 3.41448L17.055 4.87484ZM10.2337 3.41448C6.85012 4.20817 4.20817 6.85011 3.41448 10.2337L4.87484 10.5763C5.53843 7.74731 7.74731 5.53843 10.5763 4.87484L10.2337 3.41448ZM21.1386 22.1993L25.7197 26.7803L26.7803 25.7197L22.1993 21.1386L21.1386 22.1993Z" fill="#040404"/>
</g>
</svg>
