<svg width="44" height="44" viewBox="0 0 44 44" fill="none" xmlns="http://www.w3.org/2000/svg">
<rect width="44" height="44" rx="12" fill="#F0F2F4"/>
<path d="M14.7631 23.4842L15.7367 23.2558L14.7631 23.4842ZM14.7631 18.9367L15.7367 19.165L14.7631 18.9367ZM27.6578 18.9367L28.6313 18.7083L27.6578 18.9367ZM27.6578 23.4842L28.6313 23.7126L27.6578 23.4842ZM23.4842 27.6578L23.2558 26.6842L23.4842 27.6578ZM18.9367 27.6578L18.7083 28.6313L18.9367 27.6578ZM18.9367 14.7631L18.7083 13.7895L18.9367 14.7631ZM23.4842 14.7631L23.7126 13.7895L23.4842 14.7631ZM28.7929 30.2071C29.1834 30.5976 29.8166 30.5976 30.2071 30.2071C30.5976 29.8166 30.5976 29.1834 30.2071 28.7929L28.7929 30.2071ZM15.7367 23.2558C15.4211 21.9105 15.4211 20.5104 15.7367 19.165L13.7895 18.7083C13.4035 20.3541 13.4035 22.0668 13.7895 23.7126L15.7367 23.2558ZM26.6842 19.165C26.9998 20.5104 26.9998 21.9105 26.6842 23.2558L28.6313 23.7126C29.0174 22.0668 29.0174 20.3541 28.6313 18.7083L26.6842 19.165ZM23.2558 26.6842C21.9105 26.9998 20.5104 26.9998 19.165 26.6842L18.7083 28.6313C20.3541 29.0174 22.0668 29.0174 23.7126 28.6313L23.2558 26.6842ZM19.165 15.7367C20.5104 15.4211 21.9105 15.4211 23.2558 15.7367L23.7126 13.7895C22.0668 13.4035 20.3541 13.4035 18.7083 13.7895L19.165 15.7367ZM19.165 26.6842C17.4639 26.2852 16.1357 24.9569 15.7367 23.2558L13.7895 23.7126C14.362 26.1532 16.2677 28.0589 18.7083 28.6313L19.165 26.6842ZM23.7126 28.6313C26.1532 28.0589 28.0589 26.1532 28.6313 23.7126L26.6842 23.2558C26.2852 24.9569 24.9569 26.2852 23.2558 26.6842L23.7126 28.6313ZM23.2558 15.7367C24.9569 16.1357 26.2852 17.4639 26.6842 19.165L28.6313 18.7083C28.0589 16.2677 26.1532 14.362 23.7126 13.7895L23.2558 15.7367ZM18.7083 13.7895C16.2677 14.362 14.362 16.2677 13.7895 18.7083L15.7367 19.165C16.1357 17.4639 17.4639 16.1357 19.165 15.7367L18.7083 13.7895ZM25.7388 27.1531L28.7929 30.2071L30.2071 28.7929L27.1531 25.7388L25.7388 27.1531Z" fill="black"/>
</svg>
