<svg width="52" height="52" viewBox="0 0 52 52" fill="none" xmlns="http://www.w3.org/2000/svg">
<rect opacity="0.1" width="52" height="52" rx="12" fill="#5348F3"/>
<path d="M27.7517 18.6933C27.7517 17.8584 27.1416 17.1488 26.3161 17.0238C26.1066 16.9921 25.8935 16.9921 25.6839 17.0238C24.8584 17.1488 24.2482 17.8584 24.2482 18.6933V19.874C23.7766 20.0086 23.3273 20.1962 22.9073 20.4299L22.072 19.5947C21.4817 19.0043 20.5485 18.9341 19.8764 19.4294C19.7058 19.5551 19.5551 19.7058 19.4294 19.8764C18.9341 20.5485 19.0043 21.4817 19.5947 22.0721L20.4299 22.9073C20.1962 23.3274 20.0086 23.7766 19.874 24.2483H18.6933C17.8584 24.2483 17.1488 24.8584 17.0238 25.6839C16.9921 25.8935 16.9921 26.1066 17.0238 26.3161C17.1488 27.1416 17.8584 27.7518 18.6933 27.7518H19.874C20.0086 28.2234 20.1962 28.6727 20.4299 29.0927L19.5947 29.9279C19.0043 30.5183 18.9341 31.4515 19.4294 32.1236C19.5551 32.2942 19.7058 32.4449 19.8764 32.5706C20.5485 33.0659 21.4817 32.9957 22.0721 32.4053L22.9073 31.5701C23.3273 31.8038 23.7766 31.9914 24.2482 32.126V33.3067C24.2482 34.1416 24.8584 34.8512 25.6839 34.9762C25.8934 35.0079 26.1066 35.0079 26.3161 34.9762C27.1416 34.8512 27.7517 34.1416 27.7517 33.3067V32.1261C28.2234 31.9914 28.6727 31.8038 29.0927 31.5701L29.9279 32.4053C30.5183 32.9957 31.4515 33.0659 32.1236 32.5706C32.2942 32.4449 32.4449 32.2942 32.5706 32.1236C33.0659 31.4515 32.9957 30.5183 32.4053 29.928L31.5701 29.0928C31.8038 28.6727 31.9914 28.2234 32.1261 27.7518H33.3067C34.1416 27.7518 34.8512 27.1416 34.9762 26.3161C35.0079 26.1066 35.0079 25.8935 34.9762 25.6839C34.8512 24.8584 34.1416 24.2483 33.3067 24.2483H32.126C31.9914 23.7766 31.8038 23.3273 31.5701 22.9073L32.4053 22.072C32.9957 21.4817 33.0659 20.5485 32.5706 19.8764C32.4449 19.7058 32.2942 19.5551 32.1236 19.4294C31.4515 18.9341 30.5183 19.0043 29.9279 19.5947L29.0927 20.4299C28.6727 20.1962 28.2234 20.0086 27.7517 19.874V18.6933Z" stroke="#5348F3" stroke-width="2" stroke-linecap="round" stroke-linejoin="round"/>
<path d="M23.5 26C23.5 24.6193 24.6193 23.5 26 23.5C27.3807 23.5 28.5 24.6193 28.5 26C28.5 27.3807 27.3807 28.5 26 28.5C24.6193 28.5 23.5 27.3807 23.5 26Z" stroke="#5348F3" stroke-width="2"/>
</svg>
