<svg width="60" height="60" viewBox="0 0 60 60" fill="none" xmlns="http://www.w3.org/2000/svg">
<g id="icon_sns_apple" clip-path="url(#clip0_85_96)">
<g id="Group 41">
<path id="Ellipse 57" d="M30 60C46.5685 60 60 46.5685 60 30C60 13.4315 46.5685 0 30 0C13.4315 0 0 13.4315 0 30C0 46.5685 13.4315 60 30 60Z" fill="black"/>
<path id="Vector" d="M26.3604 40.224C24.6204 40.2132 23.2932 38.424 22.2996 36.822C19.5204 32.3604 19.23 27.1236 20.9436 24.3384C21.4393 23.4431 22.152 22.6868 23.0163 22.1389C23.8806 21.591 24.8688 21.2691 25.89 21.2028C27.7272 21.2028 28.89 22.2672 30.4056 22.2672C31.8816 22.2672 32.7816 21.2004 34.9068 21.2004C35.803 21.2497 36.6763 21.5022 37.4605 21.9387C38.2447 22.3753 38.9193 22.9846 39.4332 23.7204C38.5606 24.2541 37.8512 25.017 37.3822 25.926C36.9132 26.8351 36.7026 27.8553 36.7734 28.8758C36.8442 29.8962 37.1936 30.8776 37.7836 31.7132C38.3737 32.5487 39.1817 33.2064 40.1196 33.6144C39.7031 34.6627 39.1905 35.6702 38.5884 36.624C37.596 38.22 36.1956 40.2084 34.4592 40.224C33.8202 40.2087 33.1961 40.0284 32.6472 39.7008C31.9635 39.3423 31.2003 39.1624 30.4284 39.1776C28.3512 39.1896 27.9084 40.2288 26.3892 40.2288L26.3604 40.224ZM29.6616 21.3624C29.5816 20.6604 29.6448 19.9494 29.8473 19.2725C30.0498 18.5956 30.3876 17.9667 30.84 17.424C31.7284 16.301 33.0201 15.5691 34.44 15.384C34.5893 16.8256 34.179 18.2695 33.294 19.4172C32.8884 19.9848 32.3607 20.4543 31.7497 20.7911C31.1388 21.1279 30.4601 21.3236 29.7636 21.3636L29.6616 21.3624Z" fill="white"/>
</g>
</g>
<defs>
<clipPath id="clip0_85_96">
<rect width="60" height="60" fill="white"/>
</clipPath>
</defs>
</svg>
