<svg width="60" height="60" viewBox="0 0 60 60" fill="none" xmlns="http://www.w3.org/2000/svg">
<g id="icon_sns_kakaotalk" clip-path="url(#clip0_85_99)">
<g id="Group 39">
<path id="Ellipse 58" d="M30 60C46.5685 60 60 46.5685 60 30C60 13.4315 46.5685 0 30 0C13.4315 0 0 13.4315 0 30C0 46.5685 13.4315 60 30 60Z" fill="#FBE300"/>
<path id="Vector" d="M30.0002 19.8276C23.2478 19.8276 17.7734 24.1476 17.7734 29.4684C17.7734 32.9076 20.0618 35.9304 23.5046 37.6356C23.3174 38.2812 22.3046 41.7912 22.2602 42.066C22.2602 42.066 22.2362 42.2736 22.3706 42.3516C22.4154 42.3744 22.4644 42.3877 22.5146 42.3908C22.5647 42.3939 22.615 42.3867 22.6622 42.3696C23.0474 42.3156 27.1226 39.4524 27.8282 38.9556C28.5478 39.0569 29.2736 39.1074 30.0002 39.1068C36.7526 39.1068 42.227 34.7868 42.227 29.466C42.227 24.1452 36.7526 19.8276 30.0002 19.8276Z" fill="#381F1F"/>
</g>
</g>
<defs>
<clipPath id="clip0_85_99">
<rect width="60" height="60" fill="white"/>
</clipPath>
</defs>
</svg>
