<svg width="92" height="22" viewBox="0 0 92 22" fill="none" xmlns="http://www.w3.org/2000/svg">
<rect x="1" y="9" width="90" height="4" fill="#5348F3"/>
<path d="M21 11C21 16.5228 16.5228 21 11 21C5.47715 21 1 16.5228 1 11C1 5.47715 5.47715 1 11 1C16.5228 1 21 5.47715 21 11Z" fill="white"/>
<path fill-rule="evenodd" clip-rule="evenodd" d="M15.1725 8.52227L13.6974 7.26514L9.89676 12.6193L8.22694 10.5283L6.82422 11.8731L9.98465 15.8307L15.1725 8.52227Z" fill="#5348F3"/>
<path fill-rule="evenodd" clip-rule="evenodd" d="M11 2C6.02944 2 2 6.02944 2 11C2 15.9706 6.02944 20 11 20C15.9706 20 20 15.9706 20 11C20 6.02944 15.9706 2 11 2ZM0 11C0 4.92487 4.92487 0 11 0C17.0751 0 22 4.92487 22 11C22 17.0751 17.0751 22 11 22C4.92487 22 0 17.0751 0 11Z" fill="#5348F3"/>
<path d="M56 11C56 16.5228 51.5228 21 46 21C40.4772 21 36 16.5228 36 11C36 5.47715 40.4772 1 46 1C51.5228 1 56 5.47715 56 11Z" fill="white"/>
<path fill-rule="evenodd" clip-rule="evenodd" d="M50.1725 8.52227L48.6974 7.26514L44.8968 12.6193L43.2269 10.5283L41.8242 11.8731L44.9847 15.8307L50.1725 8.52227Z" fill="#5348F3"/>
<path fill-rule="evenodd" clip-rule="evenodd" d="M46 2C41.0294 2 37 6.02944 37 11C37 15.9706 41.0294 20 46 20C50.9706 20 55 15.9706 55 11C55 6.02944 50.9706 2 46 2ZM35 11C35 4.92487 39.9249 0 46 0C52.0751 0 57 4.92487 57 11C57 17.0751 52.0751 22 46 22C39.9249 22 35 17.0751 35 11Z" fill="#5348F3"/>
<circle cx="81" cy="11" r="11" fill="#5348F3"/>
<path d="M80.9937 16.127C79.0322 16.127 77.6294 15.0605 77.5913 13.5117H79.2544C79.2988 14.248 80.0352 14.7368 80.9937 14.7305C82.0029 14.7368 82.7329 14.1782 82.7329 13.3594C82.7329 12.5342 82.022 11.9438 80.8286 11.9375H80.0034V10.668H80.8286C81.8062 10.668 82.4854 10.1221 82.479 9.32227C82.4854 8.54785 81.9014 8.02734 81.0063 8.02734C80.1431 8.02734 79.4004 8.50977 79.3687 9.28418H77.7817C77.8198 7.7417 79.2227 6.68164 81.019 6.68164C82.8853 6.68164 84.0913 7.82422 84.0786 9.2334C84.0913 10.2617 83.4058 11.0044 82.4028 11.2139V11.29C83.6978 11.4614 84.4341 12.293 84.4214 13.4482C84.4341 15.0034 82.9805 16.127 80.9937 16.127Z" fill="white"/>
</svg>
