<svg width="52" height="52" viewBox="0 0 52 52" fill="none" xmlns="http://www.w3.org/2000/svg">
<rect opacity="0.1" width="52" height="52" rx="12" fill="#5348F3"/>
<path d="M22.5 29.7409C22.5 28.7575 23.2086 27.9198 24.1717 27.7648C25.3829 27.5699 26.6171 27.5699 27.8283 27.7648C28.7914 27.9198 29.5 28.7575 29.5 29.7409V29.9586C29.5 30.5338 29.0376 31 28.4673 31H23.5327C22.9624 31 22.5 30.5338 22.5 29.9586V29.7409Z" stroke="#5348F3" stroke-width="2"/>
<path d="M28.0417 23.0588C28.0417 24.1959 27.1276 25.1176 26 25.1176C24.8724 25.1176 23.9583 24.1959 23.9583 23.0588C23.9583 21.9218 24.8724 21 26 21C27.1276 21 28.0417 21.9218 28.0417 23.0588Z" stroke="#5348F3" stroke-width="2"/>
<path d="M35 21C35 18.7909 32.7614 17 30 17M17 30C17 32.7614 18.7909 35 21 35M21 17C18.7909 17 17 18.7909 17 21M30 35C32.7614 35 35 32.7614 35 30" stroke="#5348F3" stroke-width="2" stroke-linecap="round"/>
</svg>
