<svg width="26" height="20" viewBox="0 0 26 20" fill="none" xmlns="http://www.w3.org/2000/svg">
<g id="visible=off" clip-path="url(#clip0_80_74)">
<g id="Component 18 &#226;&#128;&#147; 17">
<path id="Union" fill-rule="evenodd" clip-rule="evenodd" d="M2.1292 0.630167C1.69994 0.282671 1.07025 0.348954 0.722755 0.778214C0.375259 1.20747 0.441541 1.83716 0.870802 2.18466L3.99382 4.71282C2.28776 6.02898 0.91565 7.73869 0 9.70397C1.00974 12.1931 2.75758 14.3133 5.00842 15.7793C7.25927 17.2453 9.90512 17.9868 12.59 17.904C14.7059 17.9243 16.7931 17.4853 18.7105 16.6263L21.8708 19.1847C22.3001 19.5322 22.9297 19.4659 23.2772 19.0366C23.6247 18.6073 23.5585 17.9777 23.1292 17.6302L2.1292 0.630167ZM15.5239 14.0467L13.8366 12.6807C13.5021 12.8095 13.1388 12.8801 12.759 12.8801C11.1022 12.8801 9.75903 11.5369 9.75903 9.88007C9.75903 9.72 9.77157 9.56287 9.79571 9.40958L8.10737 8.04283C7.88256 8.61157 7.75903 9.23139 7.75903 9.88007C7.75903 12.6415 9.99761 14.8801 12.759 14.8801C13.7813 14.8801 14.732 14.5733 15.5239 14.0467ZM25.87 9.70397C24.9086 11.6696 23.5219 13.3878 21.8187 14.7385L17.5577 11.2891C17.6888 10.8422 17.759 10.3694 17.759 9.88007C17.759 7.11864 15.5205 4.88007 12.759 4.88007C11.8986 4.88007 11.089 5.0974 10.382 5.48017L7.17777 2.8863C8.8879 2.19421 10.7295 1.8566 12.59 1.90398C15.2998 1.8929 17.9626 2.61121 20.2992 3.9836C22.6358 5.35599 24.56 7.33186 25.87 9.70397ZM12.759 6.88007C14.4001 6.88007 15.7334 8.19771 15.7587 9.83274L12.1802 6.93587C12.3675 6.89925 12.561 6.88007 12.759 6.88007Z" fill="#B8B8B8"/>
</g>
</g>
<defs>
<clipPath id="clip0_80_74">
<rect width="26" height="20" fill="white"/>
</clipPath>
</defs>
</svg>
