<svg width="26" height="20" viewBox="0 0 26 20" fill="none" xmlns="http://www.w3.org/2000/svg">
<g id="visible=on">
<g id="Group 4">
<path id="Union" fill-rule="evenodd" clip-rule="evenodd" d="M0 9.79656C1.11112 7.41173 2.8944 5.40324 5.13092 4.01762C7.36744 2.63201 9.95989 1.92959 12.59 1.99657C15.2998 1.98548 17.9626 2.7038 20.2992 4.07619C22.6358 5.44858 24.56 7.42445 25.87 9.79656C24.6565 12.2778 22.7653 14.3647 20.4151 15.8158C18.0649 17.267 15.3519 18.0231 12.59 17.9966C9.90512 18.0794 7.25927 17.3379 5.00842 15.8719C2.75758 14.4059 1.00974 12.2857 0 9.79656ZM12.7588 14.9727C15.5202 14.9727 17.7588 12.7341 17.7588 9.97266C17.7588 7.21123 15.5202 4.97266 12.7588 4.97266C9.99736 4.97266 7.75879 7.21123 7.75879 9.97266C7.75879 12.7341 9.99736 14.9727 12.7588 14.9727ZM15.7588 9.97266C15.7588 11.6295 14.4156 12.9727 12.7588 12.9727C11.1019 12.9727 9.75879 11.6295 9.75879 9.97266C9.75879 8.3158 11.1019 6.97266 12.7588 6.97266C14.4156 6.97266 15.7588 8.3158 15.7588 9.97266Z" fill="#B8B8B8"/>
</g>
</g>
</svg>
