<svg xmlns="http://www.w3.org/2000/svg" width="126.875" height="59.386" viewBox="0 0 126.875 59.386">
    <g data-name="그룹 5701">
        <path data-name="빼기 6" d="M24.653 58.386a1.431 1.431 0 0 1-1.429-1.427v-5.946a25.537 25.537 0 1 1 27.057-18.934A30.847 30.847 0 0 1 46.04 42.69a34.817 34.817 0 0 1-8.1 8.778 42.246 42.246 0 0 1-12.894 6.863 1.424 1.424 0 0 1-.393.055zm-4.87-35.954v10.107A11.13 11.13 0 0 0 30.9 43.657a3.107 3.107 0 1 0 0-6.214 4.909 4.909 0 0 1-4.9-4.9V15.072c0-.084 0-.164-.01-.239a9.384 9.384 0 0 0 .091-1.317V10.2a3.107 3.107 0 1 0-6.214 0v3.32a3.248 3.248 0 0 1-3.244 3.244H13.66a3.108 3.108 0 1 0 0 6.216h2.959a9.426 9.426 0 0 0 3.162-.544zm11.438-5.671a3.108 3.108 0 1 0 3.109 3.109 3.111 3.111 0 0 0-3.108-3.109z" transform="translate(.5 .5)" style="stroke:transparent;stroke-miterlimit:10;fill:#fff"/>
        <g data-name="그룹 5356">
            <g data-name="그룹 18">
                <path data-name="패스 25" d="M1139.173 1006.179a3.046 3.046 0 0 0 0-6.091h-14.363a3.045 3.045 0 0 0-3.046 3.046v16.094a3.045 3.045 0 0 0 3.046 3.046h14.363a3.046 3.046 0 0 0 0-6.091h-11.317v-10z" transform="translate(-1029.494 -988.118)" style="fill:#fff"/>
                <path data-name="패스 26" d="M1073.059 1028.291h-7.752v-5.679a11.953 11.953 0 1 0-6.091.048v8.677a3.046 3.046 0 0 0 3.045 3.045h10.8a3.046 3.046 0 1 0 0-6.091zm-16.75-17.217a5.866 5.866 0 1 1 5.866 5.866 5.873 5.873 0 0 1-5.867-5.866z" transform="translate(-987.16 -987.544)" style="fill:#fff"/>
                <path data-name="패스 27" d="M1181.6 1020.346h-9a3.046 3.046 0 0 0 0 6.091h5.953v8.167a3.045 3.045 0 0 0 6.091 0v-11.213a3.046 3.046 0 0 0-3.044-3.045z" transform="translate(-1057.775 -1000.105)" style="fill:#fff"/>
            </g>
        </g>
    </g>
</svg>
