<svg width="115" height="29" viewBox="0 0 115 29" fill="none" xmlns="http://www.w3.org/2000/svg">
<g id="logo">
<g id="logo_2">
<g id="HUB">
<path d="M0 29V1H6.51917V12.139H17.6785V1H24.1976V29H17.6785V17.4414H6.51917V29H0Z" fill="black"/>
<path d="M45.2507 1H51.8083V18.8147C51.8083 24.9945 47.0914 28.9809 40.1121 29C33.0752 28.9809 28.4159 24.9945 28.4159 18.8147V1H34.9351V18.2807C34.9351 21.1989 37.0251 23.3161 40.1121 23.3161C43.1799 23.3161 45.2699 21.1989 45.2507 18.2807V1Z" fill="black"/>
<path d="M56.0265 29V1H67.4926C73.7242 1 76.9262 3.82289 76.9262 8.01907C76.9262 11.1662 74.7788 13.3406 71.7493 13.97V14.2371C75.0855 14.3896 78 16.9074 78 20.9128C78 25.3569 74.5295 29 68.3746 29H56.0265ZM62.5457 23.3542H66.8407C69.8127 23.3542 71.174 22.1526 71.174 20.188C71.174 18.0136 69.5634 16.6213 66.9557 16.6403H62.5457V23.3542ZM62.5457 12.406H66.4189C68.6431 12.3869 70.2537 11.2234 70.2537 9.23978C70.2537 7.37057 68.8156 6.18801 66.4956 6.18801H62.5457V12.406Z" fill="black"/>
</g>
<g id="Group 2">
<path id="&#237;&#140;&#168;&#236;&#138;&#164; 35" d="M96.8931 11.596H103.325V6.95249H96.8931V1L87 10.5104V11.6001H91.2716V22.1347C91.2716 26.4935 93.5423 28.8555 98.4909 28.8555H103.314V23.3307H99.9838C98.1218 23.3307 96.8931 22.7627 96.8931 20.68V11.5946V11.596Z" fill="black"/>
</g>
<path id="&#237;&#140;&#168;&#236;&#138;&#164; 39" d="M112.45 0.218776C112.005 0.0016697 111.5 -0.0560097 111.018 0.0554162C110.536 0.166842 110.107 0.440593 109.804 0.830735C109.5 1.22088 109.339 1.70367 109.349 2.19811C109.359 2.69255 109.539 3.16854 109.858 3.54622L109.894 3.58809L109.918 3.61322C110.323 4.01277 110.638 4.49402 110.842 5.0249C111.046 5.55579 111.135 6.12411 111.103 6.69201C111.07 7.2599 110.917 7.81432 110.653 8.31833C110.389 8.82233 110.021 9.26434 109.573 9.6149L109.93 10.1662C115.354 8.53599 114.987 1.41772 112.451 0.228546" fill="#FF4545"/>
</g>
</g>
</svg>
