<svg width="60" height="60" viewBox="0 0 60 60" fill="none" xmlns="http://www.w3.org/2000/svg">
<g id="icon_sns_google" clip-path="url(#clip0_85_97)">
<g id="Group 44">
<g id="Ellipse 56">
<path id="Vector" d="M59.5 30C59.5 46.2924 46.2924 59.5 30 59.5C13.7076 59.5 0.5 46.2924 0.5 30C0.5 13.7076 13.7076 0.5 30 0.5C46.2924 0.5 59.5 13.7076 59.5 30Z" fill="white" stroke="#E1E1E1"/>
</g>
<g id="Group 43">
<g id="Clip path group">
<mask id="mask0_85_97" style="mask-type:luminance" maskUnits="userSpaceOnUse" x="18" y="18" width="23" height="24">
<g id="9ofn93bqaa">
<path id="Rectangle 14" d="M18.8896 18.8892H40.9504V41.4H18.8896V18.8892Z" fill="white"/>
</g>
</mask>
<g mask="url(#mask0_85_97)">
<g id="Group 42">
<path id="Path 43" fill-rule="evenodd" clip-rule="evenodd" d="M40.9505 30.4008C40.951 29.6286 40.8824 28.858 40.7453 28.098H30.1445V32.4516H36.2069C36.0816 33.1403 35.8179 33.7965 35.4318 34.3804C35.0456 34.9643 34.5452 35.4638 33.9605 35.8488V38.6724H37.5977C38.7062 37.6059 39.5781 36.3183 40.157 34.8931C40.7358 33.4679 41.0086 31.937 40.9577 30.3996" fill="#3E82F1"/>
<path id="Path 44" fill-rule="evenodd" clip-rule="evenodd" d="M30.1463 41.4C32.8864 41.4747 35.5514 40.4994 37.5959 38.6736L33.9587 35.85C33.0885 36.4088 32.1021 36.7615 31.0748 36.881C30.0476 37.0006 29.0066 36.8839 28.0313 36.5398C27.056 36.1958 26.1722 35.6335 25.4473 34.8959C24.7225 34.1582 24.1757 33.2648 23.8487 32.2836H20.0879V35.1996C21.0246 37.0642 22.4614 38.6315 24.2376 39.7265C26.0139 40.8215 28.0597 41.4009 30.1463 41.4Z" fill="#32A753"/>
<path id="Path 45" fill-rule="evenodd" clip-rule="evenodd" d="M23.8469 32.2824C23.3763 30.8956 23.3763 29.3924 23.8469 28.0056V25.0896H20.0897C19.3031 26.6577 18.8936 28.3879 18.8936 30.1422C18.8936 31.8965 19.3031 33.6267 20.0897 35.1948L23.8469 32.2824Z" fill="#F9BB00"/>
<path id="Path 46" fill-rule="evenodd" clip-rule="evenodd" d="M30.1463 23.3652C31.7458 23.3373 33.292 23.9409 34.4495 25.0452L37.6775 21.8172C35.6398 19.9046 32.9408 18.8548 30.1463 18.888C28.0595 18.8873 26.0137 19.4669 24.2374 20.5621C22.4611 21.6573 21.0244 23.2248 20.0879 25.0896L23.8487 28.008C24.2811 26.673 25.1213 25.5073 26.251 24.6748C27.3808 23.8424 28.7431 23.3852 30.1463 23.3676" fill="#E74133"/>
</g>
</g>
</g>
</g>
</g>
</g>
<defs>
<clipPath id="clip0_85_97">
<rect width="60" height="60" fill="white"/>
</clipPath>
</defs>
</svg>
