<svg width="92" height="22" viewBox="0 0 92 22" fill="none" xmlns="http://www.w3.org/2000/svg">
<rect x="1" y="9" width="90" height="4" fill="#EFEFEF"/>
<circle cx="11" cy="11" r="11" fill="#FF4343"/>
<path d="M12.1377 6.80859V16H10.2207V8.62402H10.1699L8.0625 9.94434V8.25586L10.335 6.80859H12.1377Z" fill="white"/>
<path d="M56 11C56 16.5228 51.5228 21 46 21C40.4772 21 36 16.5228 36 11C36 5.47715 40.4772 1 46 1C51.5228 1 56 5.47715 56 11Z" fill="white"/>
<path fill-rule="evenodd" clip-rule="evenodd" d="M46 2C41.0294 2 37 6.02944 37 11C37 15.9706 41.0294 20 46 20C50.9706 20 55 15.9706 55 11C55 6.02944 50.9706 2 46 2ZM35 11C35 4.92487 39.9249 0 46 0C52.0751 0 57 4.92487 57 11C57 17.0751 52.0751 22 46 22C39.9249 22 35 17.0751 35 11Z" fill="#EBEBEB"/>
<path d="M42.8452 16V14.8066L46.0952 11.6709C47.022 10.7441 47.5044 10.1982 47.5044 9.42383C47.5044 8.56689 46.8252 8.02734 45.9302 8.02734C44.9844 8.02734 44.375 8.61768 44.3813 9.55078H42.8071C42.8008 7.81152 44.1084 6.68164 45.9429 6.68164C47.8218 6.68164 49.085 7.80518 49.0913 9.34766C49.085 10.3823 48.5898 11.2202 46.7808 12.9277L45.1431 14.5527V14.6162H49.231V16H42.8452Z" fill="#ABABAB"/>
<path d="M91 11C91 16.5228 86.5228 21 81 21C75.4772 21 71 16.5228 71 11C71 5.47715 75.4772 1 81 1C86.5228 1 91 5.47715 91 11Z" fill="white"/>
<path fill-rule="evenodd" clip-rule="evenodd" d="M81 2C76.0294 2 72 6.02944 72 11C72 15.9706 76.0294 20 81 20C85.9706 20 90 15.9706 90 11C90 6.02944 85.9706 2 81 2ZM70 11C70 4.92487 74.9249 0 81 0C87.0751 0 92 4.92487 92 11C92 17.0751 87.0751 22 81 22C74.9249 22 70 17.0751 70 11Z" fill="#EBEBEB"/>
<path d="M80.9937 16.127C79.0322 16.127 77.6294 15.0605 77.5913 13.5117H79.2544C79.2988 14.248 80.0352 14.7368 80.9937 14.7305C82.0029 14.7368 82.7329 14.1782 82.7329 13.3594C82.7329 12.5342 82.022 11.9438 80.8286 11.9375H80.0034V10.668H80.8286C81.8062 10.668 82.4854 10.1221 82.479 9.32227C82.4854 8.54785 81.9014 8.02734 81.0063 8.02734C80.1431 8.02734 79.4004 8.50977 79.3687 9.28418H77.7817C77.8198 7.7417 79.2227 6.68164 81.019 6.68164C82.8853 6.68164 84.0913 7.82422 84.0786 9.2334C84.0913 10.2617 83.4058 11.0044 82.4028 11.2139V11.29C83.6978 11.4614 84.4341 12.293 84.4214 13.4482C84.4341 15.0034 82.9805 16.127 80.9937 16.127Z" fill="#ABABAB"/>
</svg>
