<svg width="22" height="22" viewBox="0 0 22 22" fill="none" xmlns="http://www.w3.org/2000/svg">
<path d="M20.4845 0.165968C20.1439 0.00126667 19.7566 -0.0424901 19.3873 0.0420399C19.0181 0.12657 18.6894 0.334243 18.4565 0.630213C18.2236 0.926183 18.1007 1.29244 18.1082 1.66753C18.1158 2.04262 18.2535 2.40372 18.4981 2.69024L18.526 2.722L18.5441 2.74106C18.8544 3.04417 19.0959 3.40926 19.2524 3.812C19.409 4.21474 19.477 4.64588 19.452 5.0767C19.427 5.50751 19.3096 5.92811 19.1075 6.31045C18.9053 6.6928 18.6232 7.02812 18.2799 7.29406L18.5538 7.7123C22.7104 6.47558 22.429 1.07551 20.4855 0.17338" fill="#FF4545"/>
<path d="M8.55332 8.79687H13.4825V5.27423H8.55332V0.758545L0.97168 7.9733V8.79997H4.24526V16.7918C4.24526 20.0985 5.9854 21.8903 9.77778 21.8903H13.4741V17.6991H10.9219C9.49489 17.6991 8.55332 17.2682 8.55332 15.6882V8.79584V8.79687Z" fill="white"/>
</svg>
