<svg width="88" height="22" viewBox="0 0 88 22" fill="none" xmlns="http://www.w3.org/2000/svg">
<path d="M0 21.9999V0.758545H4.996V9.20879H13.548V0.758545H18.544V21.9999H13.548V13.2313H4.996V21.9999H0Z" fill="white"/>
<path d="M34.6781 0.758545H39.7035V14.2732C39.7035 18.9613 36.0888 21.9855 30.7401 21.9999C25.3474 21.9855 21.7767 18.9613 21.7767 14.2732V0.758545H26.7727V13.868C26.7727 16.0819 28.3744 17.688 30.7401 17.688C33.0912 17.688 34.6928 16.0819 34.6781 13.868V0.758545Z" fill="white"/>
<path d="M42.9362 21.9999V0.758545H51.7233C56.4989 0.758545 58.9528 2.90005 58.9528 6.08336C58.9528 8.47084 57.3071 10.1204 54.9854 10.5979V10.8005C57.5422 10.9162 59.7757 12.8262 59.7757 15.8648C59.7757 19.2362 57.1161 21.9999 52.3992 21.9999H42.9362ZM47.9322 17.7169H51.2237C53.5013 17.7169 54.5446 16.8053 54.5446 15.315C54.5446 13.6654 53.3103 12.6092 51.3119 12.6236H47.9322V17.7169ZM47.9322 9.41137H50.9004C52.605 9.3969 53.8393 8.51425 53.8393 7.00941C53.8393 5.59139 52.7372 4.69428 50.9592 4.69428H47.9322V9.41137Z" fill="white"/>
<path d="M74.2545 8.79687H79.1837V5.27423H74.2545V0.758545L66.6729 7.9733V8.79997H69.9464V16.7918C69.9464 20.0985 71.6866 21.8903 75.479 21.8903H79.1753V17.6991H76.623C75.1961 17.6991 74.2545 17.2682 74.2545 15.6882V8.79584V8.79687Z" fill="white"/>
<path d="M86.1763 0.165968C85.8358 0.00126667 85.4485 -0.0424901 85.0792 0.0420399C84.71 0.12657 84.3813 0.334243 84.1484 0.630213C83.9155 0.926183 83.7926 1.29244 83.8001 1.66753C83.8077 2.04262 83.9454 2.40372 84.19 2.69024L84.2179 2.722L84.236 2.74106C84.5463 3.04417 84.7878 3.40926 84.9443 3.812C85.1009 4.21474 85.1689 4.64588 85.1439 5.0767C85.1189 5.50751 85.0015 5.92811 84.7993 6.31045C84.5972 6.6928 84.3151 7.02812 83.9718 7.29406L84.2457 7.7123C88.4023 6.47558 88.1209 1.07551 86.1774 0.17338" fill="#FF4545"/>
</svg>
